<svg
  viewBox="0 0 512 512"
  xmlns="http://www.w3.org/2000/svg"
  fill="#3d9de8"
>
  <circle cx="256" cy="256" r="208" fill="#3a7bd5" />
  <path
    d="M352.13 64.35a16 16 0 0 0-11.06-6.45 181.84 181.84 0 0 0 11.13 26.36 15.91 15.91 0 0 0 14.72 10.06h 19.64 a 187.92 187.92 0 0 0 11.74 -28.53 a 16 16 0 0 0 -11.35 -21.07 c -3.56 -0.86 -7.21 -1.49 -10.59 -1.49 c -3.56 0 -7.03 0.63 -10.52 1.45 z"
    fill="#f4a261"
  />
  <path
    d="M309.45 76.74a181.84 181.84 0 0 0 -18.13 -26.36 a 16 16 0 0 0 -19.39 -3.7 c -32.18 14.6 -54.54 44.52 -57.13 78.92 c -0.12 1.64 -0.2 3.28 -0.2 4.92 c 0 1.64 0.08 3.28 0.19 4.92 c 2.6 34.4 24.95 64.32 57.13 78.91 a 16 16 0 0 0 19.38 -3.7 a 182 182 0 0 0 18.14 -26.36 c -0.08 -1.73 -0.17 -3.46 -0.23 -5.19 c -0.19 -3.09 -0.32 -6.19 -0.4 -9.28 c -0.1 -4.22 -0.18 -8.44 -0.18 -12.67 s 0.08 -8.45 0.17 -12.67 c 0.08 -3.09 0.21 -6.19 0.4 -9.28 c 0.06 -1.73 0.15 -3.46 0.23 -5.19 z"
    fill="#e76f51"
  />
  <!-- ... (Other path elements for continents and details) ... -->
</svg>
